name Walk6.mot
datacolumns 19
datarows 10
range 1.98500000 2.03000000
endheader

                time	   L_ground_force_vx	   L_ground_force_vy	   L_ground_force_vz	   L_ground_force_px	   L_ground_force_py	   L_ground_force_pz	   R_ground_force_vx	   R_ground_force_vy	   R_ground_force_vz	   R_ground_force_px	   R_ground_force_py	   R_ground_force_pz	   L_ground_torque_x	   L_ground_torque_y	   L_ground_torque_z	   R_ground_torque_x	   R_ground_torque_y	   R_ground_torque_z	
          1.98500000	         -0.00000000	         -0.00000000	          0.00000000	          0.00000000	          0.00000000	          0.00000000	        -16.03406827	        505.50164283	        -40.41456094	          0.21424788	          0.00000000	          0.07714828	          0.00000000	         -0.00000000	          0.00000000	          0.00000000	          1.03175996	          0.00000000	
          1.99000000	         -0.00000000	         -0.00000000	          0.00000000	          0.00000000	          0.00000000	          0.00000000	        -14.25657076	        498.90057441	        -40.08932816	          0.21646178	          0.00000000	          0.07771455	          0.00000000	         -0.00000000	          0.00000000	          0.00000000	          0.99773719	          0.00000000	
          1.99500000	         -0.00000000	         -0.00000000	          0.00000000	          0.00000000	          0.00000000	          0.00000000	        -12.65997686	        492.85626643	        -39.80096798	          0.21882697	          0.00000000	          0.07833436	          0.00000000	         -0.00000000	          0.00000000	          0.00000000	          0.99235512	          0.00000000	
          2.00000000	          0.00000000	          0.00000000	         -0.00000000	         -0.00000000	          0.00000000	         -0.00000000	        -11.06562459	        487.27972871	        -39.52029811	          0.22121573	          0.00000000	          0.07867303	          0.00000000	          0.00000000	          0.00000000	          0.00000000	          1.00304184	          0.00000000	
          2.00500000	          0.00000000	          0.00000000	         -0.00000000	         -0.00000000	          0.00000000	         -0.00000000	         -9.46930731	        482.36621925	        -39.14660221	          0.22336246	          0.00000000	          0.07891922	          0.00000000	          0.00000000	          0.00000000	          0.00000000	          1.02513620	          0.00000000	
          2.01000000	         -0.00000000	          0.00000000	         -0.00000000	         -0.00000000	          0.00000000	         -0.00000000	         -7.96114019	        478.35980931	        -38.69140454	          0.22542740	          0.00000000	          0.07927986	          0.00000000	          0.00000000	          0.00000000	          0.00000000	          1.05970067	          0.00000000	
          2.01500000	         -0.00000000	         -0.00000000	          0.00000000	          0.00000000	          0.00000000	          0.00000000	         -6.65855976	        475.12738315	        -38.25835757	          0.22775920	          0.00000000	          0.07968444	          0.00000000	         -0.00000000	          0.00000000	          0.00000000	          1.10892289	          0.00000000	
          2.02000000	         -0.00000000	         -0.00000000	          0.00000000	          0.00000000	          0.00000000	          0.00000000	         -5.55358509	        472.65914148	        -37.81020628	          0.23018206	          0.00000000	          0.08010419	          0.00000000	         -0.00000000	          0.00000000	          0.00000000	          1.14011803	          0.00000000	
          2.02500000	          0.00000000	          0.00000000	         -0.00000000	          0.00000000	          0.00000000	          0.00000000	         -4.60265599	        471.06470766	        -37.26332033	          0.23238890	          0.00000000	          0.08040485	          0.00000000	         -0.00000000	          0.00000000	          0.00000000	          1.18277112	          0.00000000	
          2.03000000	          0.00000000	          0.00000000	         -0.00000000	         -0.00000000	          0.00000000	         -0.00000000	         -3.72276481	        470.27197174	        -36.69178304	          0.23437291	          0.00000000	          0.08058506	          0.00000000	          0.00000000	          0.00000000	          0.00000000	          1.25499741	          0.00000000	
